<svg width="44" height="35" viewBox="0 0 44 35" fill="none" xmlns="http://www.w3.org/2000/svg">
<path d="M5.375 35L0.676514 5.27934C0.510896 4.23172 1.87561 3.68087 2.48362 4.54994L10.9841 16.7C11.4059 17.3028 12.3122 17.2593 12.6741 16.6188L20.6294 2.54069C21.0122 1.86331 21.9878 1.86331 22.3706 2.54069L30.3259 16.6188C30.6878 17.2593 31.5941 17.3028 32.0159 16.7001L40.5164 4.54994C41.1244 3.68088 42.4891 4.23172 42.3235 5.27934L37.625 35H32.25H21.5H10.75H5.375Z" fill="#ffd103"/>
<path d="M40 3.75C40 4.7165 40.7835 5.5 41.75 5.5C42.7165 5.5 43.5 4.7165 43.5 3.75C43.5 2.7835 42.7165 2 41.75 2C40.7835 2 40 2.7835 40 3.75Z" fill="#FF0000"/>
<path d="M20 1.75C20 2.7165 20.7835 3.5 21.75 3.5C22.7165 3.5 23.5 2.7165 23.5 1.75C23.5 0.783502 22.7165 0 21.75 0C20.7835 0 20 0.783502 20 1.75Z" fill="#FF0000"/>
<path d="M0 3.75C0 4.7165 0.783502 5.5 1.75 5.5C2.7165 5.5 3.5 4.7165 3.5 3.75C3.5 2.7835 2.7165 2 1.75 2C0.783502 2 0 2.7835 0 3.75Z" fill="#FF0000"/>
</svg>
