<svg width="62" height="32" viewBox="0 0 62 32" fill="none" xmlns="http://www.w3.org/2000/svg">
<rect x="0.5" y="0.5" width="61" height="31" rx="2.5" fill="white"/>
<path d="M17.8164 3.44336H43.8174V28.6235H17.8164V3.44336Z" fill="white"/>
<path d="M17.6836 3.25H43.9276V28.75H17.6836V3.25Z" fill="#008061"/>
<path d="M33.8639 27.0724V28.0933H27.5694V27.0705H22.8063C22.3409 27.0705 21.9618 26.584 21.9618 25.9843L19.9688 5.82721C19.9688 5.22706 20.4342 4.74023 21.0085 4.74023H40.256C40.8266 4.74023 41.292 5.22706 41.292 5.82721L39.3214 25.9843C39.3214 26.584 38.9423 27.0705 38.4769 27.0705L33.8639 27.0724H33.8639Z" fill="white"/>
<path d="M23.4766 7.69141H36.3621C35.0934 8.16698 31.2312 10.782 30.2666 12.5401H23.4879L23.4766 7.69141H23.4766Z" fill="#F5821F"/>
<path d="M33.7453 21.585C33.5614 23.3408 33.5539 25.4791 33.5539 27.7252H27.9688C27.9688 25.4791 28.0626 23.3408 28.2465 21.585H33.7453H33.7453Z" fill="#ED1B2D"/>
<path d="M25.1044 19.0472V19.7277H24.2111V20.4085H25.1044V21.1886H23.0625V17.5586H25.1044V18.3671H24.2111V19.0472H25.1044Z" fill="#008061"/>
<path d="M29.8505 19.0472V19.7277H28.961V20.4085H29.8505V21.1886H27.8125V17.5586H29.8505V18.3671H28.961V19.0472H29.8505Z" fill="#008061"/>
<path d="M35.0849 19.0472V19.7277H34.1915V20.4085H35.0849V21.1886H33.043V17.5586H35.0849V18.3671H34.1915V19.0472H35.0849Z" fill="#008061"/>
<path d="M26.6369 17.5586V20.4085H27.5301V21.1886H25.4883V17.5586H26.6369Z" fill="#008061"/>
<path d="M31.5001 20.0119L31.0646 17.5586H30.0625L30.6329 21.1886H32.108L32.7987 17.5586H31.9466L31.5001 20.0119Z" fill="#008061"/>
<path d="M35.5703 17.5586H36.6739V21.1882H35.5703V17.5586Z" fill="#008061"/>
<path d="M36.6719 18.6366C36.732 18.2391 37.295 18.3458 37.295 18.5728V21.1889H38.4022V18.1123C38.4022 17.4599 37.4826 17.1976 36.6794 17.7719L36.6719 18.6366L36.6719 18.6366Z" fill="#008061"/>
<path d="M34.264 17.0481C34.3766 15.659 36.2796 13.3904 38.1225 12.7947V7.43555C33.0516 9.70417 29.7561 13.1352 29.043 17.0346L34.264 17.0481L34.264 17.0481Z" fill="#ED1B2D"/>
<rect x="0.5" y="0.5" width="61" height="31" rx="2.5" stroke="#EEEEEE"/>
</svg>
