<svg width="62" height="32" viewBox="0 0 62 32" fill="none" xmlns="http://www.w3.org/2000/svg">
<rect x="0.5" y="0.5" width="61" height="31" rx="2.5" fill="white"/>
<path d="M35.8683 7.12891H26.1328V24.6238H35.8683V7.12891Z" fill="#FF5F00"/>
<path d="M26.7524 15.8762C26.7508 14.1914 27.1326 12.5282 27.8689 11.0127C28.6051 9.49718 29.6765 8.16904 31.002 7.1288C29.3606 5.83866 27.3894 5.03634 25.3136 4.81355C23.2378 4.59075 21.1413 4.95646 19.2635 5.86889C17.3858 6.78132 15.8026 8.20366 14.695 9.97332C13.5874 11.743 13 13.7886 13 15.8762C13 17.9639 13.5874 20.0095 14.695 21.7792C15.8026 23.5488 17.3858 24.9712 19.2635 25.8836C21.1413 26.796 23.2378 27.1617 25.3136 26.939C27.3894 26.7162 29.3606 25.9138 31.002 24.6237C29.6765 23.5835 28.6052 22.2553 27.8689 20.7398C27.1327 19.2243 26.7509 17.5611 26.7524 15.8762V15.8762Z" fill="#EB001B"/>
<path d="M49.0053 15.8762C49.0054 17.9639 48.4181 20.0095 47.3105 21.7791C46.203 23.5488 44.6199 24.9711 42.7422 25.8836C40.8644 26.796 38.7679 27.1617 36.6921 26.9389C34.6164 26.7162 32.6452 25.9138 31.0039 24.6237C32.3282 23.5824 33.3987 22.254 34.1348 20.7388C34.871 19.2235 35.2535 17.5609 35.2535 15.8762C35.2535 14.1916 34.871 12.529 34.1348 11.0137C33.3987 9.49844 32.3282 8.17008 31.0039 7.12879C32.6452 5.83865 34.6164 5.03633 36.6921 4.81354C38.7679 4.59075 40.8644 4.95648 42.7422 5.86892C44.6199 6.78136 46.203 8.20369 47.3105 9.97335C48.4181 11.743 49.0054 13.7886 49.0053 15.8762V15.8762Z" fill="#F79E1B"/>
<path d="M47.9421 22.7707V22.4125H48.0866V22.3396H47.7188V22.4125H47.8632V22.7707H47.9421ZM48.6562 22.7707V22.3389H48.5435L48.4138 22.6359L48.2841 22.3389H48.1713V22.7707H48.2509V22.445L48.3725 22.7258H48.4551L48.5767 22.4443V22.7707H48.6562Z" fill="#F79E1B"/>
<rect x="0.5" y="0.5" width="61" height="31" rx="2.5" stroke="#EEEEEE"/>
</svg>
