<svg width="62" height="32" viewBox="0 0 62 32" fill="none" xmlns="http://www.w3.org/2000/svg">
<rect x="0.5" y="0.5" width="61" height="31" rx="2.5" fill="white"/>
<path d="M25.4654 9.26489L19.443 23.7731H15.5138L12.5502 12.1958C12.3702 11.4827 12.2147 11.2214 11.6668 10.9212C10.7734 10.4316 9.29806 9.97271 8 9.6875L8.08936 9.26489H14.4144C15.2203 9.26489 15.9451 9.80676 16.1281 10.7444L17.6933 19.1386L21.5616 9.26392L25.4654 9.26489ZM40.8605 19.0363C40.8763 15.2071 35.6165 14.9964 35.6527 13.2856C35.664 12.7651 36.1558 12.2118 37.2294 12.0703C37.762 11.9999 39.2294 11.946 40.895 12.7196L41.5479 9.64299C40.6535 9.31545 39.5028 9 38.0711 9C34.397 9 31.8115 10.972 31.7897 13.7958C31.7657 15.8845 33.6345 17.05 35.0434 17.7438C36.4922 18.4547 36.9781 18.9112 36.9728 19.5472C36.9623 20.5204 35.8173 20.9503 34.7471 20.967C32.8783 20.996 31.7947 20.4565 30.9303 20.0506L30.2566 23.229C31.1251 23.6316 32.7281 23.9826 34.3903 24C38.2955 24 40.8497 22.0524 40.8617 19.0363H40.8605ZM50.5634 23.7731H54.0012L50.9987 9.26489H47.8262C47.4873 9.26194 47.1554 9.36183 46.8735 9.55162C46.5915 9.74141 46.3726 10.0123 46.2449 10.3293L40.6669 23.7731H44.57L45.3446 21.6061H50.1135L50.5634 23.7731ZM46.416 18.6325L48.3724 13.185L49.4985 18.6325H46.416ZM30.7762 9.26489L27.7026 23.7731H23.9857L27.0605 9.26489H30.7762Z" fill="#1434CB"/>
<rect x="0.5" y="0.5" width="61" height="31" rx="2.5" stroke="#EEEEEE"/>
</svg>
