<svg width="62" height="32" viewBox="0 0 62 32" fill="none" xmlns="http://www.w3.org/2000/svg">
<rect x="0.5" y="0.5" width="61" height="31" rx="2.5" fill="white"/>
<path d="M12.7608 11.916H11.4473C11.2456 11.916 11.082 12.0795 11.082 12.2813V20.4573C11.082 20.659 11.2456 20.8225 11.4473 20.8225H12.7608C12.9625 20.8225 13.126 20.659 13.126 20.4573V12.2813C13.126 12.0795 12.9625 11.916 12.7608 11.916Z" fill="black"/>
<path d="M9.58484 18.7813H6.04401V12.2813C6.04401 12.1844 6.00553 12.0915 5.93703 12.023C5.86853 11.9545 5.77563 11.916 5.67876 11.916H4.36525C4.26838 11.916 4.17548 11.9545 4.10698 12.023C4.03848 12.0915 4 12.1844 4 12.2813V20.4587C4 20.5555 4.03848 20.6484 4.10698 20.7169C4.17548 20.7854 4.26838 20.8239 4.36525 20.8239H9.58484C9.6328 20.8239 9.6803 20.8145 9.72461 20.7961C9.76893 20.7778 9.80919 20.7508 9.84311 20.7169C9.87702 20.683 9.90393 20.6428 9.92228 20.5984C9.94064 20.5541 9.95009 20.5066 9.95009 20.4587V19.1438C9.94936 19.0474 9.91056 18.9552 9.84214 18.8873C9.77372 18.8194 9.68123 18.7813 9.58484 18.7813V18.7813Z" fill="black"/>
<path d="M29.1161 13.9573C29.1642 13.958 29.2119 13.9492 29.2566 13.9315C29.3013 13.9137 29.342 13.8873 29.3765 13.8537C29.4109 13.8202 29.4384 13.7801 29.4573 13.7359C29.4763 13.6917 29.4863 13.6442 29.4869 13.5962V12.2813C29.4869 12.1844 29.4484 12.0915 29.3799 12.023C29.3114 11.9545 29.2185 11.916 29.1216 11.916H23.8965C23.7996 11.916 23.7067 11.9545 23.6382 12.023C23.5697 12.0915 23.5312 12.1844 23.5312 12.2813V20.4587C23.5313 20.5555 23.5697 20.6484 23.6382 20.7169C23.7067 20.7854 23.7996 20.8239 23.8965 20.8239H29.1161C29.213 20.8239 29.3059 20.7854 29.3744 20.7169C29.4429 20.6484 29.4813 20.5555 29.4813 20.4587V19.1438C29.4813 19.0469 29.4429 18.954 29.3744 18.8855C29.3059 18.817 29.213 18.7785 29.1161 18.7785H25.5753V17.392H29.1161C29.1645 17.3927 29.2126 17.3838 29.2576 17.3658C29.3025 17.3477 29.3434 17.3209 29.3779 17.287C29.4124 17.253 29.4398 17.2125 29.4585 17.1678C29.4772 17.1231 29.4869 17.0752 29.4869 17.0267V15.7132C29.4869 15.6163 29.4484 15.5234 29.3799 15.4549C29.3114 15.3864 29.2185 15.348 29.1216 15.348H25.5753V13.9573H29.1161Z" fill="black"/>
<path d="M21.7755 11.915H20.4607C20.364 11.9154 20.2715 11.954 20.2033 12.0225C20.1351 12.091 20.0968 12.1837 20.0968 12.2803V17.012L16.6511 12.0942C16.6047 12.0323 16.5432 11.9833 16.4725 11.9519C16.4018 11.9206 16.3242 11.9079 16.2472 11.915C16.2266 11.9137 16.2058 11.9137 16.1852 11.915H14.8731C14.7762 11.915 14.6833 11.9535 14.6148 12.022C14.5463 12.0905 14.5078 12.1834 14.5078 12.2803V20.4577C14.5078 20.5546 14.5463 20.6475 14.6148 20.716C14.6833 20.7845 14.7762 20.8229 14.8731 20.8229H16.188C16.2848 20.8229 16.3777 20.7845 16.4462 20.716C16.5147 20.6475 16.5532 20.5546 16.5532 20.4577V15.5165L20.1368 20.6424C20.1492 20.6603 20.1643 20.6768 20.1781 20.6934C20.2098 20.7306 20.2485 20.7612 20.292 20.7835C20.3355 20.8057 20.383 20.8191 20.4317 20.8229H21.7714C21.8683 20.8229 21.9612 20.7845 22.0297 20.716C22.0982 20.6475 22.1367 20.5546 22.1367 20.4577V12.2803C22.1367 12.1841 22.0988 12.0918 22.0311 12.0235C21.9635 11.9551 21.8717 11.9161 21.7755 11.915V11.915Z" fill="black"/>
<path d="M57.0868 8.5H33.8226C33.3187 8.5 32.9102 8.90851 32.9102 9.41243V23.3249C32.9102 23.8288 33.3187 24.2373 33.8226 24.2373H57.0868C57.5907 24.2373 57.9992 23.8288 57.9992 23.3249V9.41243C57.9992 8.90851 57.5907 8.5 57.0868 8.5Z" fill="#08BF5B"/>
<path d="M41.9585 14.6368C41.9571 14.9683 41.8898 15.2963 41.7605 15.6016C41.6312 15.907 41.4426 16.1835 41.2054 16.4153C40.9683 16.647 40.6875 16.8293 40.3792 16.9516C40.071 17.0738 39.7416 17.1336 39.4101 17.1273H38.3185V19.1686C38.3185 19.2337 38.2926 19.2961 38.2466 19.3421C38.2006 19.3881 38.1382 19.4139 38.0731 19.4139H36.9016C36.8365 19.4139 36.7741 19.3881 36.7281 19.3421C36.6821 19.2961 36.6563 19.2337 36.6563 19.1686V12.3874C36.6562 12.3223 36.6821 12.2599 36.7281 12.2139C36.7741 12.1679 36.8365 12.1421 36.9016 12.1421H39.4101C39.742 12.1357 40.0718 12.1954 40.3804 12.3178C40.689 12.4403 40.9701 12.6229 41.2073 12.8552C41.4445 13.0874 41.6331 13.3645 41.7621 13.6704C41.8911 13.9763 41.9579 14.3048 41.9585 14.6368ZM40.2949 14.6368C40.3011 14.5166 40.2828 14.3964 40.2411 14.2836C40.1995 14.1707 40.1354 14.0674 40.0526 13.98C39.9699 13.8927 39.8703 13.823 39.7598 13.7753C39.6494 13.7275 39.5304 13.7027 39.4101 13.7023H38.3185V15.5726H39.4101C39.5305 15.5722 39.6496 15.5474 39.7602 15.4996C39.8707 15.4517 39.9704 15.3819 40.0531 15.2944C40.1359 15.2069 40.2 15.1035 40.2416 14.9904C40.2831 14.8774 40.3013 14.7571 40.2949 14.6368Z" fill="white"/>
<path d="M48.1319 14.3495V19.2893C48.1321 19.3062 48.1289 19.323 48.1226 19.3388C48.1162 19.3545 48.1068 19.3688 48.0949 19.3808C48.083 19.3929 48.0688 19.4024 48.0531 19.4089C48.0375 19.4155 48.0207 19.4188 48.0038 19.4188H46.7027C46.6683 19.4188 46.6353 19.4052 46.611 19.3809C46.5867 19.3566 46.5731 19.3236 46.5731 19.2893V18.9295C46.2299 19.3251 45.7213 19.5636 45.0239 19.5636C43.6621 19.5636 42.543 18.3686 42.543 16.8194C42.543 15.2702 43.6649 14.0752 45.0239 14.0752C45.7213 14.0752 46.2299 14.315 46.5731 14.7092V14.3495C46.5735 14.3154 46.5873 14.2828 46.6115 14.2588C46.6358 14.2348 46.6685 14.2213 46.7027 14.2213H48.0038C48.0206 14.2213 48.0373 14.2246 48.0528 14.2311C48.0684 14.2375 48.0825 14.2469 48.0944 14.2588C48.1063 14.2707 48.1157 14.2849 48.1222 14.3004C48.1286 14.316 48.1319 14.3326 48.1319 14.3495ZM46.5759 16.8194C46.5759 16.0406 46.0562 15.5513 45.3354 15.5513C44.6145 15.5513 44.0949 16.0406 44.0949 16.8194C44.0949 17.5981 44.6145 18.0874 45.3354 18.0874C46.0562 18.0874 46.5759 17.5995 46.5759 16.8194Z" fill="white"/>
<path d="M53.3216 14.3554L52.1252 17.3698L50.8848 14.3527C50.8693 14.3125 50.8421 14.2778 50.8067 14.2532C50.7713 14.2287 50.7294 14.2153 50.6863 14.2148H49.359C49.3378 14.2148 49.317 14.22 49.2983 14.2299C49.2796 14.2399 49.2637 14.2543 49.252 14.2719C49.2403 14.2895 49.2331 14.3098 49.2311 14.3308C49.229 14.3519 49.2323 14.3731 49.2405 14.3926L51.3079 19.4248L50.5567 21.3199C50.5488 21.3395 50.5458 21.3607 50.548 21.3817C50.5502 21.4027 50.5576 21.4228 50.5695 21.4402C50.5813 21.4577 50.5973 21.4719 50.616 21.4817C50.6347 21.4915 50.6555 21.4965 50.6766 21.4964H52.0039C52.0472 21.496 52.0894 21.4827 52.125 21.4581C52.1606 21.4335 52.1881 21.3989 52.2038 21.3585L54.9686 14.3968C54.9762 14.3772 54.979 14.3561 54.9766 14.3353C54.9742 14.3144 54.9668 14.2944 54.955 14.2771C54.9432 14.2597 54.9274 14.2455 54.9089 14.2356C54.8904 14.2257 54.8697 14.2205 54.8487 14.2204H53.5214C53.4785 14.2205 53.4365 14.2334 53.4009 14.2575C53.3654 14.2815 53.3377 14.3156 53.3216 14.3554V14.3554Z" fill="white"/>
<rect x="0.5" y="0.5" width="61" height="31" rx="2.5" stroke="#EEEEEE"/>
</svg>
